#!OML:ASF I:\Actors\actors\Patient Classification 2\Patient 1\Session 1\actor1.ASF
:FULLY-SPECIFIED
:DEGREES
786
root -0.346061 18.6851 4.72204 23.7952 5.42998 -1.11752
lowerback 32.8207 -0.565532 1.67194
upperback 2.8652 0.134214 1.54652
thorax -13.7844 0.0119045 0.714493
lowerneck -16.7894 -2.59389 -2.97332
upperneck -10.06 -2.74929 6.48532
head -0.257057 -1.22914 2.47137
rclavicle 1.98785e-016 -8.54774e-015
rhumerus -37.371 13.0066 -89.959
rradius 114.314
rwrist 20.4164
rhand -0.352497 -47.4133
rfingers 7.12502
rthumb 25.2527 -75.7622
lclavicle 1.98785e-016 -8.54774e-015
lhumerus -38.1318 -25.7825 104.613
lradius 105.62
lwrist -14.7578
lhand 18.1215 -12.8665
lfingers 7.12502
lthumb 42.7813 11.4562
rfemur -30.5909 2.43143 11.8968
rtibia 21.0436
rfoot -22.7635 -14.2861
rtoes -10.4593
lfemur -42.7584 -1.75596 -12.0459
ltibia 34.4163
lfoot -14.7694 8.12097
ltoes -57.635
787
root -0.347579 18.6851 4.70959 23.6492 4.84911 -0.933644
lowerback 32.6188 -0.487503 1.62321
upperback 2.85112 0.125019 0.999618
thorax -13.7122 -0.00300653 0.151859
lowerneck -16.7768 -1.45611 -2.71872
upperneck -10.1996 -1.28919 5.19768
head -0.397464 -0.507183 2.06922
rclavicle 2.5842e-015 -1.02374e-014
rhumerus -37.4614 12.4539 -90.9338
rradius 114.246
rwrist 21.7591
rhand -1.92275 -47.1307
rfingers 7.12502
rthumb 23.7475 -75.6834
lclavicle 2.5842e-015 -1.02374e-014
lhumerus -38.3771 -26.7286 103.543
lradius 105.612
lwrist -13.2452
lhand 17.085 -13.2058
lfingers 7.12502
lthumb 41.8105 11.4474
rfemur -30.5688 2.92812 11.512
rtibia 21.0202
rfoot -22.8665 -14.4719
rtoes -10.4983
lfemur -42.4904 -1.25043 -12.5136
ltibia 34.3891
lfoot -14.7861 8.04512
ltoes -57.6807
788
root -0.355517 18.6864 4.6978 23.4159 4.2956 -0.775693
lowerback 32.4363 -0.285285 1.34601
upperback 2.92927 0.219489 0.621302
thorax -13.5443 0.0452487 -0.14618
lowerneck -16.9479 -0.854705 -2.82086
upperneck -9.99389 -0.487197 4.42825
head -0.342358 -0.0980486 1.8714
rclavicle 4.47266e-015 6.06293e-015
rhumerus -37.4763 12.0701 -91.5824
rradius 114.15
rwrist 22.8112
rhand -3.98519 -46.8928
rfingers 7.12502
rthumb 21.7682 -75.6887
lclavicle 4.47266e-015 6.06293e-015
lhumerus -38.0338 -27.5568 102.725
lradius 105.558
lwrist -12.3836
lhand 17.8889 -13.0637
lfingers 7.12502
lthumb 42.5636 11.3346
rfemur -30.4158 3.42585 11.1933
rtibia 20.9636
rfoot -23.0444 -14.5104
rtoes -9.77683
lfemur -42.1084 -0.655895 -12.9439
ltibia 34.3283
lfoot -14.8642 7.84129
ltoes -57.5203
789
root -0.361179 18.687 4.67824 23.0966 4.12872 -0.571133
lowerback 32.4028 -0.175822 1.09648
upperback 3.02118 0.238355 0.416767
thorax -13.4248 0.0631105 -0.23987
lowerneck -17.2262 -0.755225 -2.92803
upperneck -9.52224 -0.354645 3.97923
head -0.151896 -0.0262872 1.75037
rclavicle -7.35503e-015 3.77691e-015
rhumerus -37.5168 11.9323 -91.9099
rradius 114.099
rwrist 23.5007
rhand -5.94773 -47.0778
rfingers 7.12502
rthumb 19.8826 -76.0808
lclavicle -7.35503e-015 3.77691e-015
lhumerus -37.324 -28.1209 102.183
lradius 105.466
lwrist -12.3266
lhand 20.0036 -12.5935
lfingers 7.12502
lthumb 44.5384 11.0856
rfemur -30.0883 3.66349 10.9119
rtibia 20.893
rfoot -23.2283 -14.525
rtoes -8.97419
lfemur -41.7356 -0.456822 -13.2805
ltibia 34.2622
lfoot -14.8433 7.65408
ltoes -57.3528
790
root -0.359077 18.6874 4.66129 22.7318 4.05111 -0.631824
lowerback 32.3452 0.0103314 0.836633
upperback 3.10309 0.397871 0.524576
thorax -13.3079 0.150263 -0.046992
lowerneck -17.4035 -0.959788 -2.82531
upperneck -8.98289 -0.671914 3.45744
head 0.0582121 -0.194891 1.54607
rclavicle -7.7526e-015 4.37326e-015
rhumerus -37.5847 12.075 -91.735
rradius 114.12
rwrist 23.7574
rhand -7.32945 -47.5013
rfingers 7.12502
rthumb 18.5539 -76.6365
lclavicle -7.7526e-015 4.37326e-015
lhumerus -36.5639 -28.332 102.135
lradius 105.35
lwrist -12.829
lhand 22.7644 -12.1394
lfingers 7.12502
lthumb 47.1011 10.4822
rfemur -29.7116 3.76864 10.9664
rtibia 20.7847
rfoot -23.0731 -14.5519
rtoes -9.29243
lfemur -41.3423 -0.207746 -13.3571
ltibia 34.2254
lfoot -14.7955 7.49323
ltoes -57.3613
791
root -0.351574 18.6856 4.63768 22.3562 4.35018 -0.755317
lowerback 32.4536 -0.00229854 0.940243
upperback 3.07847 0.441485 0.662961
thorax -13.382 0.167202 0.0285751
lowerneck -17.3641 -1.36192 -2.55853
upperneck -8.50753 -1.28067 3.08141
head 0.219218 -0.517478 1.3446
rclavicle -3.97569e-016 -7.25564e-015
rhumerus -37.7149 12.2431 -91.4602
rradius 114.24
rwrist 23.6884
rhand -8.04801 -47.7764
rfingers 7.12502
rthumb 17.8626 -76.976
lclavicle -3.97569e-016 -7.25564e-015
lhumerus -36.1442 -28.3802 102.314
lradius 105.298
lwrist -13.4447
lhand 25.2793 -11.8738
lfingers 7.12502
lthumb 49.4175 9.64946
rfemur -29.2739 3.5713 11.193
rtibia 20.6769
rfoot -22.8205 -14.6368
rtoes -10.1224
lfemur -41.0623 -0.347361 -13.2221
ltibia 34.23
lfoot -14.7806 7.43561
ltoes -57.4115
792
root -0.341922 18.6831 4.61925 21.9999 4.63228 -0.993508
lowerback 32.4756 -0.0257653 1.05177
upperback 3.04338 0.48291 0.866721
thorax -13.4327 0.184167 0.171513
lowerneck -17.1102 -1.78537 -2.48716
upperneck -8.19569 -1.87577 3.0693
head 0.296566 -0.823602 1.29578
rclavicle -5.66536e-015 2.18663e-015
rhumerus -37.8656 12.522 -91.1348
rradius 114.487
rwrist 23.3845
rhand -8.24978 -47.9493
rfingers 7.12502
rthumb 17.6685 -77.1665
lclavicle -5.66536e-015 2.18663e-015
lhumerus -36.0169 -28.1373 102.663
lradius 105.303
lwrist -13.9954
lhand 26.6425 -11.6235
lfingers 7.12502
lthumb 50.6647 9.24314
rfemur -28.847 3.3285 11.558
rtibia 20.556
rfoot -22.5855 -14.5711
rtoes -10.4627
lfemur -40.814 -0.470323 -12.9485
ltibia 34.2823
lfoot -14.8177 7.38876
ltoes -57.399
793
root -0.334417 18.6756 4.59212 21.7142 5.06641 -1.21762
lowerback 32.4884 -0.163389 1.21606
upperback 2.97229 0.401379 1.08449
thorax -13.521 0.144352 0.350792
lowerneck -16.8043 -2.09885 -2.60542
upperneck -7.96916 -2.28231 3.46383
head 0.342992 -1.02256 1.42233
rclavicle -9.64106e-015 -6.55989e-015
rhumerus -37.9097 12.8554 -90.8978
rradius 114.703
rwrist 22.9466
rhand -8.06432 -47.9018
rfingers 7.12502
rthumb 17.847 -77.1028
lclavicle -9.64106e-015 -6.55989e-015
lhumerus -36.1515 -27.6965 103.035
lradius 105.413
lwrist -14.4461
lhand 26.7334 -11.4132
lfingers 7.12502
lthumb 50.7477 9.4079
rfemur -28.4969 2.99815 11.9185
rtibia 20.4458
rfoot -22.5941 -14.4294
rtoes -9.94235
lfemur -40.7272 -0.741791 -12.6239
ltibia 34.3527
lfoot -14.7694 7.3301
ltoes -57.4237
794
root -0.328961 18.664 4.56614 21.5442 5.38036 -1.45097
lowerback 32.2591 -0.287962 1.37419
upperback 2.95305 0.316978 1.23154
thorax -13.4466 0.102691 0.457735
lowerneck -16.7003 -2.30246 -2.71928
upperneck -7.68264 -2.53813 3.99776
head 0.442286 -1.14034 1.60185
rclavicle 3.67752e-015 -1.90833e-014
rhumerus -37.7393 13.1229 -90.7772
rradius 114.858
rwrist 22.2406
rhand -7.62344 -47.8055
rfingers 7.12502
rthumb 18.2711 -76.9674
lclavicle 3.67752e-015 -1.90833e-014
lhumerus -36.3728 -27.2774 103.314
lradius 105.563
lwrist -14.88
lhand 25.9538 -11.2769
lfingers 7.12502
lthumb 50.0354 9.92723
rfemur -28.2995 2.7285 12.2531
rtibia 20.3415
rfoot -22.5983 -14.2108
rtoes -9.27499
lfemur -40.7475 -0.816275 -12.3485
ltibia 34.4261
lfoot -14.7486 7.17133
ltoes -57.4651
795
root -0.32513 18.6519 4.54288 21.3214 5.58296 -1.56468
lowerback 32.0641 -0.383211 1.43908
upperback 2.98288 0.220592 1.27546
thorax -13.3296 0.0584219 0.507818
lowerneck -16.7465 -2.41953 -2.76228
upperneck -7.3576 -2.69032 4.50046
head 0.575241 -1.20497 1.76497
rclavicle 8.94531e-016 -3.67752e-015
rhumerus -37.5371 13.2702 -90.7936
rradius 115.04
rwrist 21.2484
rhand -7.05599 -48.0464
rfingers 7.12502
rthumb 18.817 -77.1563
lclavicle 8.94531e-016 -3.67752e-015
lhumerus -36.5431 -26.9989 103.472
lradius 105.655
lwrist -15.2693
lhand 24.7332 -11.2892
lfingers 7.12502
lthumb 48.9161 10.4846
rfemur -28.0252 2.48968 12.4459
rtibia 20.2144
rfoot -22.5469 -13.9676
rtoes -8.91165
lfemur -40.6556 -0.900518 -12.211
ltibia 34.4848
lfoot -14.8394 7.05968
ltoes -57.4826
796
root -0.326281 18.6391 4.51131 21.1586 5.86344 -1.5019
lowerback 31.9086 -0.496018 1.37165
upperback 2.97457 0.052596 1.28378
thorax -13.2735 -0.0117165 0.619356
lowerneck -16.7555 -2.50661 -2.87527
upperneck -7.04631 -2.79265 5.05929
head 0.700172 -1.24087 1.96343
rclavicle -5.96354e-015 -3.97569e-016
rhumerus -37.4254 13.3686 -90.909
rradius 115.202
rwrist 20.2181
rhand -6.48352 -48.274
rfingers 7.12502
rthumb 19.3675 -77.3295
lclavicle -5.96354e-015 -3.97569e-016
lhumerus -36.6718 -26.84 103.551
lradius 105.713
lwrist -15.5351
lhand 23.3301 -11.604
lfingers 7.12502
lthumb 47.6238 10.7824
rfemur -27.8072 2.20274 12.4636
rtibia 20.0992
rfoot -22.6033 -13.796
rtoes -8.91192
lfemur -40.6494 -1.15727 -12.1882
ltibia 34.5309
lfoot -14.9189 6.95758
ltoes -57.4998
